<svg xmlns="http://www.w3.org/2000/svg" version="1.1" xmlns:xlink="http://www.w3.org/1999/xlink" xmlns:svgjs="http://svgjs.dev/svgjs" width="2000" height="1500" viewBox="0 0 2000 1500"><rect width="2000" height="1500" fill="#ffffff"></rect><g transform="matrix(0.75,0,0,0.75,249.090909090909,618.3525670058978)"><svg viewBox="0 0 396 70" data-background-color="#ffffff" preserveAspectRatio="xMidYMid meet" height="353" width="2000" xmlns="http://www.w3.org/2000/svg" xmlns:xlink="http://www.w3.org/1999/xlink"><g id="tight-bounds" transform="matrix(1,0,0,1,0.2400000000000091,-0.1923689911722022)"><svg viewBox="0 0 395.52 70.38473798234443" height="70.38473798234443" width="395.52"><g><svg viewBox="0 0 526.3733859991638 93.67074447418739" height="70.38473798234443" width="395.52"><g transform="matrix(1,0,0,1,0,12.945812007648186)"><svg viewBox="0 0 395.52 67.77912045889101" height="67.77912045889101" width="395.52"><g id="textblocktransform"><svg viewBox="0 0 395.52 67.77912045889101" height="67.77912045889101" width="395.52" id="textblock"><g><svg viewBox="0 0 395.52 67.77912045889101" height="67.77912045889101" width="395.52"><g transform="matrix(1,0,0,1,0,0)"><svg width="395.52" viewBox="4.49 -35.01 204.29 35.01" height="67.77912045889101" data-palette-color="#08a0f7"><path d="M9.5 0L4.49 0 4.49-35.01 23.66-35.01Q32.15-35.01 32.15-26.49L32.15-26.49 32.15-21.51Q32.15-12.99 23.66-12.99L23.66-12.99 9.5-12.99 9.5 0ZM9.5-30L9.5-17.99 23.39-17.99Q25.39-17.99 26.27-18.87 27.15-19.75 27.15-21.75L27.15-21.75 27.15-26.25Q27.15-28.25 26.27-29.13 25.39-30 23.39-30L23.39-30 9.5-30ZM39.13 0L39.13-35.01 64.65-35.01 64.65-30 44.14-30 44.14-20 61.64-20 61.64-14.99 44.14-14.99 44.14-5 64.65-5 64.65 0 39.13 0ZM99.8-26.49L99.8-22.51Q99.8-15.19 93.55-14.16L93.55-14.16 100.14 0 94.6 0 88.11-13.99 77.14-13.99 77.14 0 72.14 0 72.14-35.01 91.3-35.01Q99.8-35.01 99.8-26.49L99.8-26.49ZM77.14-30L77.14-18.99 91.04-18.99Q93.04-18.99 93.92-19.87 94.79-20.75 94.79-22.75L94.79-22.75 94.79-26.25Q94.79-28.25 93.92-29.13 93.04-30 91.04-30L91.04-30 77.14-30ZM113.15 0L108.15 0 108.15-35.01 127.31-35.01Q135.81-35.01 135.81-26.49L135.81-26.49 135.81-21.51Q135.81-12.99 127.31-12.99L127.31-12.99 113.15-12.99 113.15 0ZM113.15-30L113.15-17.99 127.04-17.99Q129.05-17.99 129.92-18.87 130.8-19.75 130.8-21.75L130.8-21.75 130.8-26.25Q130.8-28.25 129.92-29.13 129.05-30 127.04-30L127.04-30 113.15-30ZM142.79-5L142.79-35.01 147.79-35.01 147.79-5 167.79-5 167.79-35.01 172.79-35.01 172.79-5Q172.79-3.98 172.4-3.06 172.01-2.15 171.33-1.46 170.64-0.78 169.73-0.39 168.81 0 167.79 0L167.79 0 147.79 0Q146.77 0 145.85-0.39 144.94-0.78 144.25-1.46 143.57-2.15 143.18-3.06 142.79-3.98 142.79-5L142.79-5ZM203.77-14.99L186.78-14.99Q185.75-14.99 184.84-15.39 183.92-15.8 183.24-16.47 182.56-17.14 182.17-18.05 181.77-18.97 181.77-20L181.77-20 181.77-30Q181.77-31.03 182.17-31.95 182.56-32.86 183.24-33.53 183.92-34.2 184.84-34.61 185.75-35.01 186.78-35.01L186.78-35.01 203.77-35.01Q204.8-35.01 205.71-34.61 206.63-34.2 207.31-33.53 208-32.86 208.39-31.95 208.78-31.03 208.78-30L208.78-30 208.78-25.49 203.77-25.49 203.77-30 186.78-30 186.78-20 203.77-20Q204.8-20 205.71-19.6 206.63-19.21 207.31-18.53 208-17.85 208.39-16.93 208.78-16.02 208.78-14.99L208.78-14.99 208.78-5Q208.78-3.98 208.39-3.06 208-2.15 207.31-1.46 206.63-0.78 205.71-0.39 204.8 0 203.77 0L203.77 0 186.29 0Q185.27 0 184.35-0.39 183.43-0.78 182.75-1.46 182.07-2.15 181.68-3.06 181.29-3.98 181.29-5L181.29-5 181.29-9.5 186.29-9.5 186.29-5 203.77-5 203.77-14.99Z" opacity="1" transform="matrix(1,0,0,1,0,0)" fill="#08a0f7" class="wordmark-text-0" data-fill-palette-color="primary" id="text-0"></path></svg></g></svg></g></svg></g></svg></g><g transform="matrix(1,0,0,1,411.52102364145316,0)"><svg viewBox="0 0 114.8523623577107 93.67074447418739" height="93.67074447418739" width="114.8523623577107"><g><svg xmlns="http://www.w3.org/2000/svg" xmlns:xlink="http://www.w3.org/1999/xlink" version="1.1" x="0" y="0" viewBox="5 13.217735200000002 90.16 73.5322648" enable-background="new 0 0 100 100" xml:space="preserve" height="93.67074447418739" width="114.8523623577107" class="icon-icon-0" data-fill-palette-color="accent" id="icon-0"><g fill="#f76008" data-fill-palette-color="accent"><path fill="#f76008" d="M11.601 66.382V72.745H24.732V66.382C26 66.099 26.971 65.015 26.971 63.661V63.106C26.971 61.752 26 60.67 24.732 60.385V26.515C26 26.23 26.971 25.148 26.971 23.795V23.24C26.971 21.886 26 20.805 24.732 20.52V15.245H11.601V20.52C10.333 20.808 9.364 21.889 9.364 23.24V23.796C9.364 25.147 10.333 26.231 11.601 26.516V60.386C10.333 60.671 9.364 61.755 9.364 63.107V63.662C9.364 65.015 10.333 66.097 11.601 66.382M11.259 23.795V23.24C11.259 22.719 11.684 22.294 12.208 22.294H24.129C24.65 22.294 25.075 22.719 25.075 23.24V23.796A0.946 0.946 0 0 1 24.129 24.742H12.208A0.95 0.95 0 0 1 11.259 23.795M11.259 63.106C11.259 62.582 11.684 62.159 12.208 62.159H24.129C24.65 62.159 25.075 62.582 25.075 63.106V63.661A0.95 0.95 0 0 1 24.129 64.61H12.208A0.95 0.95 0 0 1 11.259 63.661z" data-fill-palette-color="accent"></path><rect x="5" y="75.43" fill="#f76008" width="90.16" height="11.32" data-fill-palette-color="accent"></rect><rect x="58.31" y="25.102" fill="#f76008" width="11.376" height="47.644" data-fill-palette-color="accent"></rect><rect x="39.674" y="13.748" transform="matrix(0.9738 0.2272 -0.2272 0.9738 10.9544 -9.184)" fill="#f76008" width="11.377" height="58.467" data-fill-palette-color="accent"></rect><rect x="72.461" y="19.917" fill="#f76008" width="14.205" height="52.828" data-fill-palette-color="accent"></rect></g></svg></g></svg></g></svg></g><defs></defs></svg><rect width="395.52" height="70.38473798234443" fill="none" stroke="none" visibility="hidden"></rect></g></svg></g></svg>